<svg xmlns="http://www.w3.org/2000/svg" viewBox="0 0 512 512">
  <defs>
    <linearGradient id="grad" x1="0%" y1="0%" x2="100%" y2="100%">
      <stop offset="0%" style="stop-color:#1e3a8a;stop-opacity:1" />
      <stop offset="100%" style="stop-color:#0ea5e9;stop-opacity:1" />
    </linearGradient>
  </defs>
  <!-- Laptop Body -->
  <rect x="64" y="96" width="384" height="256" rx="24" fill="url(#grad)" />
  <rect x="88" y="120" width="336" height="208" rx="12" fill="#0f172a" />
  <!-- Laptop Keyboard Base -->
  <path d="M16,384 L496,384 C504.8,384 512,391.2 512,400 L512,408 C512,412.4 504.8,416 496,416 L16,416 C7.2,416 0,412.4 0,408 L0,400 C0,391.2 7.2,384 16,384 Z" fill="#e2e8f0" />
  <rect x="208" y="384" width="96" height="12" rx="6" fill="#94a3b8" />
  <!-- Code Icon on Screen -->
  <path d="M180,180 L130,224 L180,268" stroke="#0ea5e9" stroke-width="24" stroke-linecap="round" stroke-linejoin="round" fill="none" />
  <path d="M332,180 L382,224 L332,268" stroke="#0ea5e9" stroke-width="24" stroke-linecap="round" stroke-linejoin="round" fill="none" />
  <line x1="280" y1="160" x2="232" y2="288" stroke="#f59e0b" stroke-width="24" stroke-linecap="round" />
</svg>
